<?xml version="1.0" encoding="UTF-8" standalone="no"?>
<!-- Created with Inkscape (http://www.inkscape.org/) -->

<svg
   xmlns:dc="http://purl.org/dc/elements/1.1/"
   xmlns:cc="http://creativecommons.org/ns#"
   xmlns:rdf="http://www.w3.org/1999/02/22-rdf-syntax-ns#"
   xmlns:svg="http://www.w3.org/2000/svg"
   xmlns="http://www.w3.org/2000/svg"
   xmlns:xlink="http://www.w3.org/1999/xlink"
   version="1.1"
   width="174.28226"
   height="174.2811"
   id="svg2">
  <defs
     id="defs4">
    <linearGradient
       x1="174.19"
       y1="515.97998"
       x2="176.21001"
       y2="451.32999"
       id="linearGradient3802"
       gradientUnits="userSpaceOnUse">
      <stop
         id="stop3806"
         style="stop-color:#ff6f00;stop-opacity:1"
         offset="0" />
      <stop
         id="stop3808"
         style="stop-color:#ffba00;stop-opacity:1"
         offset="1" />
    </linearGradient>
    <linearGradient
       x1="70.647003"
       y1="523.87"
       x2="75.987"
       y2="434.98001"
       id="linearGradient3816"
       gradientUnits="userSpaceOnUse">
      <stop
         id="stop3812"
         style="stop-color:#ff7700;stop-opacity:1"
         offset="0" />
      <stop
         id="stop3814"
         style="stop-color:#ffba00;stop-opacity:1"
         offset="1" />
    </linearGradient>
    <linearGradient
       x1="174.19"
       y1="515.97998"
       x2="176.21001"
       y2="451.32999"
       id="linearGradient3000"
       xlink:href="#linearGradient3802"
       gradientUnits="userSpaceOnUse"
       gradientTransform="translate(-34.284,-386.6512)" />
    <linearGradient
       x1="70.647003"
       y1="523.87"
       x2="75.987"
       y2="434.98001"
       id="linearGradient3003"
       xlink:href="#linearGradient3816"
       gradientUnits="userSpaceOnUse"
       gradientTransform="translate(-34.284,-386.6512)" />
  </defs>
  <metadata
     id="metadata7">
    <rdf:RDF>
      <cc:Work
         rdf:about="">
        <dc:format>image/svg+xml</dc:format>
        <dc:type
           rdf:resource="http://purl.org/dc/dcmitype/StillImage" />
        <dc:title></dc:title>
      </cc:Work>
    </rdf:RDF>
  </metadata>
  <path
     d="M 111.406,3.4688 C 103.6991,1.2375 95.582,0 87.156,0 39.028,0 0,38.997 0,87.125 c 0,22.305 8.4665,42.586 22.25,58 1.1981,-0.65597 2.4698,-1.3022 3.5938,-1.9688 2.2745,-1.3488 4.4195,-2.7352 6.4062,-4.125 1.9868,-1.3898 3.8423,-2.7907 5.5625,-4.2188 1.7202,-1.4281 3.3064,-2.8802 4.7812,-4.3438 1.4748,-1.4635 2.8118,-2.9413 4.0625,-4.4375 1.2507,-1.4962 2.421,-3.0052 3.4688,-4.5312 1.0478,-1.5261 1.9777,-3.0718 2.8438,-4.625 0.86605,-1.5532 1.6695,-3.11 2.375,-4.6875 1.4111,-3.155 2.5099,-6.3583 3.4062,-9.5938 0.89631,-3.2355 1.5738,-6.4875 2.125,-9.7812 1.1024,-6.5875 1.6974,-13.282 2.4375,-19.969 0.37003,-3.3434 0.77854,-6.6964 1.3125,-10.031 0.53396,-3.3348 1.1949,-6.6648 2.0625,-9.9688 0.86757,-3.304 1.9416,-6.5617 3.3125,-9.8125 1.3709,-3.2508 3.0187,-6.4808 5.0625,-9.6562 1.0219,-1.5877 2.153,-3.1541 3.375,-4.7188 1.222,-1.5647 2.5568,-3.1174 4,-4.6562 1.4432,-1.5388 3.0018,-3.0835 4.6875,-4.5938 1.6857,-1.5102 3.4881,-2.9899 5.4375,-4.4688 1.9494,-1.4789 4.047,-2.9616 6.2812,-4.4062 2.2343,-1.4447 4.6159,-2.8735 7.1562,-4.2812 1.6975,-0.94065 3.5642,-1.8581 5.4062,-2.7812 z"
     id="path3787"
     style="fill:url(#linearGradient3003)" />
  <path
     d="m 135.376,14.6588 c -0.15425,0.10899 -0.34739,0.20334 -0.5,0.3125 -2.0914,1.496 -4.0509,3.003 -5.8438,4.5312 -1.7929,1.5282 -3.4243,3.0661 -4.9375,4.625 -1.5132,1.5589 -2.9039,3.1619 -4.1562,4.75 -1.2523,1.5881 -2.3647,3.1655 -3.375,4.7812 -1.0103,1.6157 -1.9004,3.2644 -2.6875,4.9062 -0.78711,1.6418 -1.4798,3.3024 -2.0625,4.9688 -0.58274,1.6664 -1.0716,3.3418 -1.4688,5.0312 -0.79437,3.3788 -1.2412,6.7883 -1.4062,10.25 -0.1651,3.4617 -0.0323,6.9678 0.28125,10.5 0.31357,3.5322 0.82709,7.097 1.4688,10.688 0.64166,3.5905 1.3996,7.2073 2.2188,10.844 1.6383,7.2729 3.4928,14.617 4.9375,22 0.72237,3.6915 1.3332,7.3932 1.7812,11.094 0.4481,3.7006 0.72677,7.3964 0.75,11.094 0.0232,3.6973 -0.19777,7.412 -0.75,11.094 -0.27611,1.8409 -0.64554,3.6653 -1.0938,5.5 -0.44821,1.8347 -0.98586,3.673 -1.625,5.5 -0.63914,1.827 -1.3699,3.651 -2.2188,5.4688 -0.84888,1.8177 -1.8288,3.6306 -2.9062,5.4375 -0.64015,1.0735 -1.3989,2.1494 -2.125,3.2188 37.197,-9.9372 64.625,-43.793 64.625,-84.125 0,-30.277 -15.466,-56.866 -38.906,-72.469 z"
     id="path3790"
     style="fill:url(#linearGradient3000)" />
  <path
     d="m 111.406,3.4688 c -1.8421,0.92311 -3.7087,1.8406 -5.4062,2.7812 -2.5404,1.4077 -4.922,2.8366 -7.1562,4.2812 -2.2343,1.4447 -4.3319,2.9274 -6.2812,4.4062 -1.9494,1.4789 -3.7518,2.9585 -5.4375,4.4688 -1.6857,1.5102 -3.2443,3.0549 -4.6875,4.5938 -1.4432,1.5388 -2.778,3.0916 -4,4.6562 -1.222,1.5647 -2.3531,3.131 -3.375,4.7188 -2.0438,3.1754 -3.6916,6.4054 -5.0625,9.6562 -1.3709,3.2508 -2.4449,6.5085 -3.3125,9.8125 -0.86757,3.304 -1.5285,6.6339 -2.0625,9.9688 -0.53396,3.3348 -0.94247,6.6878 -1.3125,10.031 -0.74006,6.6868 -1.3351,13.381 -2.4375,19.969 -0.5512,3.2937 -1.2287,6.5458 -2.125,9.7812 -0.89631,3.2355 -1.9952,6.4388 -3.4062,9.5938 -0.70554,1.5775 -1.5089,3.1343 -2.375,4.6875 -0.86605,1.5532 -1.796,3.0989 -2.8438,4.625 -1.0478,1.5261 -2.218,3.0351 -3.4688,4.5312 -1.2507,1.4962 -2.5877,2.974 -4.0625,4.4375 -1.4748,1.4635 -3.0611,2.9157 -4.7812,4.3438 -1.7202,1.4281 -3.5758,2.8289 -5.5625,4.2188 -1.9868,1.3898 -4.1317,2.7762 -6.4062,4.125 -1.1239,0.6665 -2.3957,1.3128 -3.5938,1.9688 15.957,17.845 39.084,29.156 64.906,29.156 7.7953,0 15.311,-1.1106 22.5,-3.0312 0.72613,-1.0693 1.4848,-2.1452 2.125,-3.2188 1.0775,-1.8069 2.0574,-3.6198 2.9062,-5.4375 0.84888,-1.8177 1.5796,-3.6418 2.2188,-5.4688 0.63914,-1.827 1.1768,-3.6653 1.625,-5.5 0.44821,-1.8347 0.81764,-3.6591 1.0938,-5.5 0.55223,-3.6818 0.77323,-7.3964 0.75,-11.094 -0.0232,-3.6973 -0.3019,-7.3932 -0.75,-11.094 -0.4481,-3.7006 -1.0589,-7.4023 -1.7812,-11.094 -1.4448,-7.383 -3.2992,-14.727 -4.9375,-22 -0.81915,-3.6364 -1.5771,-7.2533 -2.2188,-10.844 -0.64166,-3.5905 -1.1552,-7.1553 -1.4688,-10.688 -0.31357,-3.5322 -0.44635,-7.0383 -0.28125,-10.5 0.1651,-3.4617 0.61188,-6.8712 1.4062,-10.25 0.39719,-1.6894 0.88601,-3.3649 1.4688,-5.0312 0.58274,-1.6664 1.2754,-3.3269 2.0625,-4.9688 0.78711,-1.6418 1.6772,-3.2905 2.6875,-4.9062 1.0103,-1.6157 2.1227,-3.1932 3.375,-4.7812 1.2523,-1.5881 2.6431,-3.1911 4.1562,-4.75 1.5132,-1.5589 3.1446,-3.0968 4.9375,-4.625 1.7929,-1.5282 3.7524,-3.0353 5.8438,-4.5312 0.15261,-0.10916 0.34575,-0.20351 0.5,-0.3125 -7.2961,-4.8565 -15.349,-8.6919 -23.969,-11.188 z"
     id="path2985"
     style="fill:#ffffff" />
  <path
     d="m 77.926,172.5388 c -16.051,-1.5703 -34.015,-9.2783 -46.131,-19.793 -9.2282,-8.0089 -9.2015,-7.8732 -2.7241,-13.834 7.7429,-7.1256 13.204,-14.096 17.975,-22.94 5.8847,-10.91 7.9686,-20.296 9.1431,-41.18 0.54897,-9.7615 1.6664,-20.228 2.4832,-23.258 4.3058,-15.975 15.05,-29.374 34.894,-43.516 4.7251,-3.3672 8.4803,-5.3274 9.9789,-5.2088 6.426,0.50846 28.407,9.4607 28.407,11.569 0,0.52691 -1.279,2.6144 -2.8422,4.6389 -7.3429,9.5096 -11.159,20.31 -12.008,33.985 -0.70192,11.309 0.50904,20.507 6.8381,51.94 5.2228,25.939 7.0294,44.272 5.28,53.584 l -0.84694,4.5082 -8.3537,3.3834 c -13.843,5.6067 -27.318,7.5661 -42.093,6.1206 z"
     id="path3761"
     style="fill:none" />
</svg>
